<?xml version="1.0" encoding="utf-8" standalone="no"?>
<!DOCTYPE svg PUBLIC "-//W3C//DTD SVG 1.1//EN"
  "http://www.w3.org/Graphics/SVG/1.1/DTD/svg11.dtd">
<svg xmlns:xlink="http://www.w3.org/1999/xlink" width="457.111812pt" height="264.996pt" viewBox="0 0 457.111812 264.996" xmlns="http://www.w3.org/2000/svg" version="1.1">
 <metadata>
  <rdf:RDF xmlns:dc="http://purl.org/dc/elements/1.1/" xmlns:cc="http://creativecommons.org/ns#" xmlns:rdf="http://www.w3.org/1999/02/22-rdf-syntax-ns#">
   <cc:Work>
    <dc:type rdf:resource="http://purl.org/dc/dcmitype/StillImage"/>
    <dc:format>image/svg+xml</dc:format>
    <dc:creator>
     <cc:Agent>
      <dc:title>cerebellar-maintenance-reserve-gating-hypothesis</dc:title>
     </cc:Agent>
    </dc:creator>
   </cc:Work>
  </rdf:RDF>
 </metadata>
 <defs>
  <style type="text/css">*{stroke-linejoin: round; stroke-linecap: butt}</style>
 </defs>
 <g id="figure_1">
  <g id="patch_1">
   <path d="M 0 264.996
L 457.111812 264.996
L 457.111812 0
L 0 0
z
" style="fill: #ffffff"/>
  </g>
  <g id="axes_1">
   <g id="patch_2">
    <path d="M 88.589187 61.6041
Q 93.831023 61.6041 97.675316 61.6041
" clip-path="url(#p154d5627bc)" style="fill: none; stroke: #2f5d8a; stroke-width: 1.25; stroke-linecap: round"/>
    <path d="M 94.075316 59.8041
L 97.675316 61.6041
L 94.075316 63.4041
z
" clip-path="url(#p154d5627bc)" style="fill: #2f5d8a; stroke: #2f5d8a; stroke-width: 1.25; stroke-linecap: round"/>
   </g>
   <g id="patch_3">
    <path d="M 187.017313 62.573933
Q 202.513465 62.915703 216.612414 63.226657
" clip-path="url(#p154d5627bc)" style="fill: none; stroke: #2f5d8a; stroke-width: 1.25; stroke-linecap: round"/>
    <path d="M 213.052979 61.347716
L 216.612414 63.226657
L 212.9736 64.94684
z
" clip-path="url(#p154d5627bc)" style="fill: #2f5d8a; stroke: #2f5d8a; stroke-width: 1.25; stroke-linecap: round"/>
   </g>
   <g id="patch_4">
    <path d="M 88.589187 133.78698
Q 93.831023 133.78698 97.675316 133.78698
" clip-path="url(#p154d5627bc)" style="fill: none; stroke: #24776e; stroke-width: 1.25; stroke-linecap: round"/>
    <path d="M 94.075316 131.98698
L 97.675316 133.78698
L 94.075316 135.58698
z
" clip-path="url(#p154d5627bc)" style="fill: #24776e; stroke: #24776e; stroke-width: 1.25; stroke-linecap: round"/>
   </g>
   <g id="patch_5">
    <path d="M 187.006819 136.482945
Q 194.310183 136.930817 200.218626 137.293147
" clip-path="url(#p154d5627bc)" style="fill: none; stroke-dasharray: 5,3.75; stroke-dashoffset: 0; stroke: #b96b25; stroke-width: 1.25; stroke-linecap: round"/>
    <path d="M 196.735552 135.276169
L 200.218626 137.293147
L 196.5152 138.869419
z
" clip-path="url(#p154d5627bc)" style="fill: #b96b25; stroke-dasharray: 5,3.75; stroke-dashoffset: 0; stroke: #b96b25; stroke-width: 1.25; stroke-linecap: round"/>
   </g>
   <g id="patch_6">
    <path d="M 252.569572 134.277301
Q 270.181921 131.04837 286.419637 128.071456
" clip-path="url(#p154d5627bc)" style="fill: none; stroke-dasharray: 5,3.75; stroke-dashoffset: 0; stroke: #b96b25; stroke-width: 1.25; stroke-linecap: round"/>
    <path d="M 282.554063 126.950144
L 286.419637 128.071456
L 283.203243 130.491128
z
" clip-path="url(#p154d5627bc)" style="fill: #b96b25; stroke-dasharray: 5,3.75; stroke-dashoffset: 0; stroke: #b96b25; stroke-width: 1.25; stroke-linecap: round"/>
   </g>
   <g id="patch_7">
    <path d="M 88.567653 195.401326
Q 124.538504 191.99587 159.201912 193.843224
" clip-path="url(#p154d5627bc)" style="fill: none; stroke-dasharray: 5,3.75; stroke-dashoffset: 0; stroke: #b96b25; stroke-width: 1.25; stroke-linecap: round"/>
    <path d="M 155.702807 191.854188
L 159.201912 193.843224
L 155.51122 195.449086
z
" clip-path="url(#p154d5627bc)" style="fill: #b96b25; stroke-dasharray: 5,3.75; stroke-dashoffset: 0; stroke: #b96b25; stroke-width: 1.25; stroke-linecap: round"/>
   </g>
   <g id="patch_8">
    <path d="M 292.687145 141.905255
Q 265.095899 159.542274 238.682176 176.426591
" clip-path="url(#p154d5627bc)" style="fill: none; stroke-dasharray: 5,3.75; stroke-dashoffset: 0; stroke: #b96b25; stroke-width: 1.25; stroke-linecap: round"/>
    <path d="M 242.684882 176.004287
L 238.682176 176.426591
L 240.745957 172.971043
z
" clip-path="url(#p154d5627bc)" style="fill: #b96b25; stroke-dasharray: 5,3.75; stroke-dashoffset: 0; stroke: #b96b25; stroke-width: 1.25; stroke-linecap: round"/>
   </g>
   <g id="line2d_1">
    <path d="M 204.5637 198.23598
L 192.2598 198.23598
L 192.2598 96.40656
" clip-path="url(#p154d5627bc)" style="fill: none; stroke-dasharray: 4.8,3.6; stroke-dashoffset: 0; stroke: #b96b25; stroke-width: 1.2"/>
   </g>
   <g id="patch_9">
    <path d="M 194.066254 95.546344
Q 206.246423 89.746263 217.164805 84.547034
" clip-path="url(#p154d5627bc)" style="fill: none; stroke-dasharray: 5,3.75; stroke-dashoffset: 0; stroke: #b96b25; stroke-width: 1.25; stroke-linecap: round"/>
    <path d="M 213.140627 84.469646
L 217.164805 84.547034
L 214.688388 87.719944
z
" clip-path="url(#p154d5627bc)" style="fill: #b96b25; stroke-dasharray: 5,3.75; stroke-dashoffset: 0; stroke: #b96b25; stroke-width: 1.25; stroke-linecap: round"/>
   </g>
   <g id="line2d_2">
    <path d="M 259.93125 64.18206
L 362.46375 91.25064
L 362.46375 173.74536
" clip-path="url(#p154d5627bc)" style="fill: none; stroke-dasharray: 4.8,3.6; stroke-dashoffset: 0; stroke: #b96b25; stroke-width: 1.2"/>
   </g>
   <g id="patch_10">
    <path d="M 360.702736 174.686244
Q 359.67703 175.234265 359.883961 175.123704
" clip-path="url(#p154d5627bc)" style="fill: none; stroke-dasharray: 5,3.75; stroke-dashoffset: 0; stroke: #b96b25; stroke-width: 1.25; stroke-linecap: round"/>
    <path d="M 363.907411 175.01484
L 359.883961 175.123704
L 362.21094 171.839626
z
" clip-path="url(#p154d5627bc)" style="fill: #b96b25; stroke-dasharray: 5,3.75; stroke-dashoffset: 0; stroke: #b96b25; stroke-width: 1.25; stroke-linecap: round"/>
   </g>
   <g id="patch_11">
    <path d="M 301.801557 70.866118
Q 332.729787 75.803414 362.277948 80.520399
" clip-path="url(#p154d5627bc)" style="fill: none; stroke: #2f5d8a; stroke-width: 1.25; stroke-linecap: round"/>
    <path d="M 359.006715 78.175397
L 362.277948 80.520399
L 358.439207 81.730385
z
" clip-path="url(#p154d5627bc)" style="fill: #2f5d8a; stroke: #2f5d8a; stroke-width: 1.25; stroke-linecap: round"/>
   </g>
   <g id="patch_12">
    <path d="M 76.54169 80.008886
Q 174.532241 138.989096 286.366673 126.993773
" clip-path="url(#p154d5627bc)" style="fill: none; stroke-dasharray: 5,3.75; stroke-dashoffset: 0; stroke: #b96b25; stroke-width: 1.25; stroke-linecap: round"/>
    <path d="M 282.595238 125.587971
L 286.366673 126.993773
L 282.979171 129.16744
z
" clip-path="url(#p154d5627bc)" style="fill: #b96b25; stroke-dasharray: 5,3.75; stroke-dashoffset: 0; stroke: #b96b25; stroke-width: 1.25; stroke-linecap: round"/>
   </g>
   <g id="patch_13">
    <path d="M 18.36468 77.329656
L 79.06392 77.329656
Q 83.98548 77.329656 83.98548 74.236104
L 83.98548 48.972096
Q 83.98548 45.878544 79.06392 45.878544
L 18.36468 45.878544
Q 13.44312 45.878544 13.44312 48.972096
L 13.44312 74.236104
Q 13.44312 77.329656 18.36468 77.329656
z
" clip-path="url(#p154d5627bc)" style="fill: #e9f1f8; stroke: #2f5d8a; stroke-width: 1.2; stroke-linejoin: miter"/>
   </g>
   <g id="patch_14">
    <path d="M 108.59328 77.329656
L 177.49512 77.329656
Q 182.41668 77.329656 182.41668 74.236104
L 182.41668 48.972096
Q 182.41668 45.878544 177.49512 45.878544
L 108.59328 45.878544
Q 103.67172 45.878544 103.67172 48.972096
L 103.67172 74.236104
Q 103.67172 77.329656 108.59328 77.329656
z
" clip-path="url(#p154d5627bc)" style="fill: #e9f1f8; stroke: #2f5d8a; stroke-width: 1.2; stroke-linejoin: miter"/>
   </g>
   <g id="patch_15">
    <path d="M 18.36468 149.512536
L 79.06392 149.512536
Q 83.98548 149.512536 83.98548 146.418984
L 83.98548 121.154976
Q 83.98548 118.061424 79.06392 118.061424
L 18.36468 118.061424
Q 13.44312 118.061424 13.44312 121.154976
L 13.44312 146.418984
Q 13.44312 149.512536 18.36468 149.512536
z
" clip-path="url(#p154d5627bc)" style="fill: #e6f4f1; stroke: #24776e; stroke-width: 1.2; stroke-linejoin: miter"/>
   </g>
   <g id="patch_16">
    <path d="M 108.59328 149.512536
L 177.49512 149.512536
Q 182.41668 149.512536 182.41668 146.418984
L 182.41668 121.154976
Q 182.41668 118.061424 177.49512 118.061424
L 108.59328 118.061424
Q 103.67172 118.061424 103.67172 121.154976
L 103.67172 146.418984
Q 103.67172 149.512536 108.59328 149.512536
z
" clip-path="url(#p154d5627bc)" style="fill: #fff1e3; stroke: #b96b25; stroke-width: 1.2; stroke-linejoin: miter"/>
   </g>
   <g id="patch_17">
    <path d="M 18.36468 216.539496
L 79.06392 216.539496
Q 83.98548 216.539496 83.98548 213.445944
L 83.98548 188.181936
Q 83.98548 185.088384 79.06392 185.088384
L 18.36468 185.088384
Q 13.44312 185.088384 13.44312 188.181936
L 13.44312 213.445944
Q 13.44312 216.539496 18.36468 216.539496
z
" clip-path="url(#p154d5627bc)" style="fill: #fff1e3; stroke: #b96b25; stroke-width: 1.2; stroke-linejoin: miter"/>
   </g>
   <g id="patch_18">
    <path d="M 211.12578 152.090496
L 243.11592 152.090496
Q 248.03748 152.090496 248.03748 148.996944
L 248.03748 128.888856
Q 248.03748 125.795304 243.11592 125.795304
L 211.12578 125.795304
Q 206.20422 125.795304 206.20422 128.888856
L 206.20422 148.996944
Q 206.20422 152.090496 211.12578 152.090496
z
" clip-path="url(#p154d5627bc)" style="fill: #fff1e3; stroke: #b96b25; stroke-width: 1.2; stroke-linejoin: miter"/>
   </g>
   <g id="patch_19">
    <path d="M 297.25308 139.200696
L 353.85102 139.200696
Q 358.77258 139.200696 358.77258 136.107144
L 358.77258 105.687216
Q 358.77258 102.593664 353.85102 102.593664
L 297.25308 102.593664
Q 292.33152 102.593664 292.33152 105.687216
L 292.33152 136.107144
Q 292.33152 139.200696 297.25308 139.200696
z
" clip-path="url(#p154d5627bc)" style="fill: #fff1e3; stroke: #b96b25; stroke-width: 1.2; stroke-linejoin: miter"/>
   </g>
   <g id="patch_20">
    <path d="M 170.11278 216.539496
L 239.01462 216.539496
Q 243.93618 216.539496 243.93618 213.445944
L 243.93618 183.026016
Q 243.93618 179.932464 239.01462 179.932464
L 170.11278 179.932464
Q 165.19122 179.932464 165.19122 183.026016
L 165.19122 213.445944
Q 165.19122 216.539496 170.11278 216.539496
z
" clip-path="url(#p154d5627bc)" style="fill: #fff1e3; stroke: #b96b25; stroke-width: 1.2; stroke-linejoin: miter"/>
   </g>
   <g id="patch_21">
    <path d="M 289.05048 216.539496
L 353.85102 216.539496
Q 358.77258 216.539496 358.77258 213.445944
L 358.77258 177.870096
Q 358.77258 174.776544 353.85102 174.776544
L 289.05048 174.776544
Q 284.12892 174.776544 284.12892 177.870096
L 284.12892 213.445944
Q 284.12892 216.539496 289.05048 216.539496
z
" clip-path="url(#p154d5627bc)" style="fill: #fff1e3; stroke: #b96b25; stroke-width: 1.2; stroke-linejoin: miter"/>
   </g>
   <g id="patch_22">
    <path d="M 227.53098 85.063536
L 292.33152 85.063536
Q 297.25308 85.063536 297.25308 81.969984
L 297.25308 46.394136
Q 297.25308 43.300584 292.33152 43.300584
L 227.53098 43.300584
Q 222.60942 43.300584 222.60942 46.394136
L 222.60942 81.969984
Q 222.60942 85.063536 227.53098 85.063536
z
" clip-path="url(#p154d5627bc)" style="fill: #e9f1f8; stroke: #2f5d8a; stroke-width: 1.2; stroke-linejoin: miter"/>
   </g>
   <g id="patch_23">
    <path d="M 373.12713 108.265176
L 405.11727 108.265176
Q 410.03883 108.265176 410.03883 105.171624
L 410.03883 64.439856
Q 410.03883 61.346304 405.11727 61.346304
L 373.12713 61.346304
Q 368.20557 61.346304 368.20557 64.439856
L 368.20557 105.171624
Q 368.20557 108.265176 373.12713 108.265176
z
" clip-path="url(#p154d5627bc)" style="fill: #f8e8ec; stroke: #9c3f50; stroke-width: 1.2; stroke-linejoin: miter"/>
   </g>
   <g id="line2d_3">
    <path d="M 20.0052 247.21722
L 40.5117 247.21722
" clip-path="url(#p154d5627bc)" style="fill: none; stroke: #2f5d8a; stroke-width: 1.4; stroke-linecap: square"/>
   </g>
   <g id="line2d_4">
    <path d="M 147.1455 247.21722
L 167.652 247.21722
" clip-path="url(#p154d5627bc)" style="fill: none; stroke-dasharray: 5.6,4.2; stroke-dashoffset: 0; stroke: #b96b25; stroke-width: 1.4"/>
   </g>
   <g id="text_1">
    <text style="font-size: 7.5px; font-family: 'DejaVu Sans'; fill: #162536" transform="translate(26.354925 59.18242)">Genotype G</text>
    <text style="font-size: 7.5px; font-family: 'DejaVu Sans'; fill: #162536" transform="translate(17.702386 68.825194)">known modifiers</text>
   </g>
   <g id="text_2">
    <!-- Known pressure $D_G$ -->
    <g style="fill: #162536" transform="translate(107.7852 59.1951)">
     <text>
      <tspan x="0" y="-0.6875" style="font-size: 7.3px; font-family: 'DejaVu Sans'; fill: #162536">K</tspan>
      <tspan x="4.785019" y="-0.6875" style="font-size: 7.3px; font-family: 'DejaVu Sans'; fill: #162536">n</tspan>
      <tspan x="9.409698" y="-0.6875" style="font-size: 7.3px; font-family: 'DejaVu Sans'; fill: #162536">o</tspan>
      <tspan x="13.874054" y="-0.6875" style="font-size: 7.3px; font-family: 'DejaVu Sans'; fill: #162536">w</tspan>
      <tspan x="19.841965" y="-0.6875" style="font-size: 7.3px; font-family: 'DejaVu Sans'; fill: #162536">n</tspan>
      <tspan x="24.466644" y="-0.6875" style="font-size: 7.3px; font-family: 'DejaVu Sans'; fill: #162536"> </tspan>
      <tspan x="26.786118" y="-0.6875" style="font-size: 7.3px; font-family: 'DejaVu Sans'; fill: #162536">p</tspan>
      <tspan x="31.417923" y="-0.6875" style="font-size: 7.3px; font-family: 'DejaVu Sans'; fill: #162536">r</tspan>
      <tspan x="34.417908" y="-0.6875" style="font-size: 7.3px; font-family: 'DejaVu Sans'; fill: #162536">e</tspan>
      <tspan x="38.907196" y="-0.6875" style="font-size: 7.3px; font-family: 'DejaVu Sans'; fill: #162536">s</tspan>
      <tspan x="42.708847" y="-0.6875" style="font-size: 7.3px; font-family: 'DejaVu Sans'; fill: #162536">s</tspan>
      <tspan x="46.510498" y="-0.6875" style="font-size: 7.3px; font-family: 'DejaVu Sans'; fill: #162536">u</tspan>
      <tspan x="51.135178" y="-0.6875" style="font-size: 7.3px; font-family: 'DejaVu Sans'; fill: #162536">r</tspan>
      <tspan x="54.135162" y="-0.6875" style="font-size: 7.3px; font-family: 'DejaVu Sans'; fill: #162536">e</tspan>
      <tspan x="58.624451" y="-0.6875" style="font-size: 7.3px; font-family: 'DejaVu Sans'; fill: #162536"> </tspan>
      <tspan x="60.943924" y="-0.6875" style="font-style: oblique; font-size: 7.3px; font-family: 'DejaVu Sans'; fill: #162536">D</tspan>
      <tspan x="66.562668" y="0.407496" style="font-style: oblique; font-size: 5.11px; font-family: 'DejaVu Sans'; fill: #162536">G</tspan>
     </text>
    </g>
    <text style="font-size: 7.3px; font-family: 'DejaVu Sans'; fill: #162536" transform="translate(109.952387 67.839897)">protein | Ca²⁺ | ER</text>
   </g>
   <g id="text_3">
    <text style="font-size: 7.3px; font-family: 'DejaVu Sans'; fill: #162536" transform="translate(23.139206 131.772066)">Measured E(t)</text>
    <text style="font-size: 7.3px; font-family: 'DejaVu Sans'; fill: #162536" transform="translate(25.638886 140.108324)">prelocked E*</text>
   </g>
   <g id="text_4">
    <text style="font-size: 6.8px; font-family: 'DejaVu Sans'; fill: #162536" transform="translate(106.520231 131.910074)">Candidate score S*(t)</text>
    <text style="font-size: 6.8px; font-family: 'DejaVu Sans'; fill: #162536" transform="translate(112.067012 139.701918)">fixed map h(E*; θ)</text>
   </g>
   <g id="text_5">
    <text style="font-size: 7.4px; font-family: 'DejaVu Sans'; fill: #162536" transform="translate(12.745097 199.206753)">Baseline reserve B₀</text>
    <text style="font-size: 7.4px; font-family: 'DejaVu Sans'; fill: #162536" transform="translate(25.686425 207.221878)">hypothetical</text>
   </g>
   <g id="text_6">
    <text style="font-size: 6px; font-family: 'DejaVu Sans'; fill: #162536" transform="translate(211.310381 137.055244)">φ(S*)→X(t)</text>
    <text style="font-size: 6px; font-family: 'DejaVu Sans'; fill: #162536" transform="translate(208.4496 144.138525)">hypothetical</text>
   </g>
   <g id="text_7">
    <text style="font-size: 6.3px; font-family: 'DejaVu Sans'; fill: #162536" transform="translate(290.810011 118.844758)">Coupling R | gate P(X)</text>
    <text style="font-size: 6.3px; font-family: 'DejaVu Sans'; fill: #162536" transform="translate(291.602433 126.352586)">activation / exchange</text>
   </g>
   <g id="text_8">
    <text style="font-size: 6.6px; font-family: 'DejaVu Sans'; fill: #162536" transform="translate(184.116591 192.516668)">Reserve B(t)</text>
    <text style="font-size: 6.6px; font-family: 'DejaVu Sans'; fill: #162536" transform="translate(172.918247 200.696543)">U − outward loss ℒ</text>
    <text style="font-size: 6.6px; font-family: 'DejaVu Sans'; fill: #162536" transform="translate(187.201059 208.484543)">− demand</text>
   </g>
   <g id="text_9">
    <text style="font-size: 6.7px; font-family: 'DejaVu Sans'; fill: #162536" transform="translate(286.586148 189.855715)">Candidate factor L(t)</text>
    <text style="font-size: 6.7px; font-family: 'DejaVu Sans'; fill: #162536" transform="translate(297.960969 197.428286)">NfL | MRI/MRS</text>
    <text style="font-size: 6.7px; font-family: 'DejaVu Sans'; fill: #162536" transform="translate(289.733055 205.334286)">physiology | digital</text>
   </g>
   <g id="text_10">
    <text style="font-size: 7px; font-family: 'DejaVu Sans'; fill: #162536" transform="translate(235.339375 58.531748)">Network state</text>
    <text style="font-size: 7px; font-family: 'DejaVu Sans'; fill: #162536" transform="translate(236.166797 66.031591)">Purkinje | glia</text>
    <text style="font-size: 7px; font-family: 'DejaVu Sans'; fill: #162536" transform="translate(231.626641 74.291591)">MLIN | synapses</text>
   </g>
   <g id="text_11">
    <text style="font-size: 6.5px; font-family: 'DejaVu Sans'; fill: #162536" transform="translate(369.727317 78.929334)">Dysfunction</text>
    <text style="font-size: 6.5px; font-family: 'DejaVu Sans'; fill: #162536" transform="translate(386.398802 87.164021)">↓</text>
    <text style="font-size: 6.5px; font-family: 'DejaVu Sans'; fill: #162536" transform="translate(366.944505 94.269334)">Degeneration</text>
   </g>
   <g id="text_12">
    <text style="font-size: 7.4px; font-family: 'DejaVu Sans'; text-anchor: start; fill: #162536" x="44.613" y="249.139775" transform="rotate(-0 44.613 249.139775)">empirically supported link</text>
   </g>
   <g id="text_13">
    <text style="font-size: 7.4px; font-family: 'DejaVu Sans'; text-anchor: start; fill: #162536" x="171.7533" y="249.139775" transform="rotate(-0 171.7533 249.139775)">hypothesis-specific link</text>
   </g>
   <g id="text_14">
    <text style="font-size: 7.4px; font-family: 'DejaVu Sans'; text-anchor: start; fill: #66788a" x="290.691" y="249.139775" transform="rotate(-0 290.691 249.139775)">L is inferred from Y—not a causal substance</text>
   </g>
  </g>
 </g>
 <defs>
  <clipPath id="p154d5627bc">
   <rect x="3.6" y="3.6" width="410.13" height="257.796"/>
  </clipPath>
 </defs>
</svg>
